<svg width="67" height="73" viewBox="0 0 67 73" fill="none" xmlns="http://www.w3.org/2000/svg">
<path fill-rule="evenodd" clip-rule="evenodd" d="M29.7974 0C29.3936 0 29.0294 0.242897 28.8742 0.615723L6.06398 55.4174C5.78983 56.076 6.27377 56.8017 6.9872 56.8017H23.6162C24.02 56.8017 24.3842 56.5587 24.5394 56.1859L47.3496 1.38428C47.6238 0.725632 47.1398 0 46.4264 0H29.7974ZM35.1075 40.3466C34.9965 40.0968 34.9926 39.8124 35.0968 39.5597L43.1247 20.073C43.4598 19.2597 44.606 19.244 44.9632 20.0479L60.7262 55.5263C61.02 56.1876 60.536 56.9323 59.8124 56.9323H43.1265C42.7313 56.9323 42.3731 56.6996 42.2126 56.3384L35.1075 40.3466ZM48.3568 10.016C47.5308 10.394 46.6693 9.56391 47.0165 8.72451L49.681 2.2823C49.9505 1.63083 50.7913 1.45523 51.299 1.94441L54.9736 5.48533C55.4812 5.97451 55.3369 6.82131 54.6959 7.1147L48.3568 10.016ZM49.5775 12.2283C48.7309 12.5573 48.726 13.7536 49.57 14.0895L56.0473 16.6674C56.7024 16.9281 57.4142 16.4473 57.4171 15.7423L57.4379 10.6393C57.4407 9.93436 56.7328 9.44782 56.0757 9.70317L49.5775 12.2283ZM47.0232 17.05C46.6827 16.2079 47.5506 15.3846 48.3736 15.7691L54.6897 18.7203C55.3284 19.0187 55.466 19.8666 54.9545 20.3518L51.2522 23.8636C50.7407 24.3488 49.9012 24.1666 49.6369 23.513L47.0232 17.05ZM3.50441 64.109C3.20975 64.187 2.98874 64.2693 2.84142 64.356C2.78075 64.512 2.69408 64.7373 2.58141 65.032C2.47742 65.3267 2.36041 65.6647 2.23041 66.046C2.17467 66.2058 2.11732 66.3704 2.05838 66.5398C1.97989 66.7654 1.89856 66.9995 1.81441 67.242C1.66708 67.6667 1.52841 68.0827 1.39841 68.49C1.26842 68.8887 1.14708 69.2613 1.03441 69.608C0.930405 69.9547 0.848083 70.245 0.787415 70.479C0.74408 70.6437 0.705078 70.7867 0.67041 70.908C0.635742 71.0293 0.618408 71.1507 0.618408 71.272C0.618408 71.5407 0.722412 71.753 0.930405 71.909C1.14708 72.0563 1.47641 72.13 1.91841 72.13C2.10909 72.13 2.26941 72.1127 2.39941 72.078C2.53809 72.052 2.66808 72.0173 2.78941 71.974C2.85875 71.714 2.92809 71.4453 2.99741 71.168C3.06674 70.8907 3.13608 70.622 3.20541 70.362H5.55841L5.79242 71.259C5.83574 71.4063 5.88341 71.5363 5.93541 71.649C5.99608 71.7617 6.06975 71.8527 6.15642 71.922C6.25174 71.9913 6.36874 72.0433 6.50742 72.078C6.65474 72.1127 6.83241 72.13 7.04041 72.13C7.32642 72.13 7.57341 72.091 7.78142 72.013C7.98941 71.9437 8.14542 71.8483 8.2494 71.727C8.11942 71.2503 7.96774 70.7043 7.79442 70.089C7.62108 69.465 7.44341 68.8367 7.26141 68.204C7.07941 67.5627 6.89742 66.943 6.71541 66.345C6.53342 65.747 6.36441 65.2227 6.20842 64.772C6.11308 64.5033 5.89641 64.3083 5.55841 64.187C5.22908 64.057 4.84775 63.992 4.41441 63.992C4.11108 63.992 3.80774 64.031 3.50441 64.109ZM3.98541 67.255C4.14142 66.8043 4.28008 66.397 4.40141 66.033H4.47942C4.58342 66.3883 4.69608 66.7913 4.81741 67.242C4.94742 67.684 5.07307 68.139 5.19441 68.607H3.58241C3.70375 68.1477 3.83807 67.697 3.98541 67.255ZM8.32477 65.552C8.37677 65.7167 8.43311 65.8467 8.49377 65.942H10.4438V70.986C10.4438 71.2113 10.4698 71.3933 10.5218 71.532C10.5738 71.6707 10.6518 71.779 10.7558 71.857C10.8598 71.935 10.9854 71.987 11.1328 72.013C11.2888 72.0477 11.4664 72.065 11.6658 72.065C11.8651 72.065 12.0644 72.052 12.2638 72.026C12.4718 72 12.6234 71.974 12.7188 71.948V65.942H14.1618C14.4044 65.942 14.5994 65.8683 14.7468 65.721C14.9028 65.5737 14.9808 65.331 14.9808 64.993C14.9808 64.811 14.9548 64.6377 14.9028 64.473C14.8508 64.3083 14.7944 64.1783 14.7338 64.083H9.06577C8.8231 64.083 8.62376 64.1567 8.46777 64.304C8.32043 64.4513 8.24677 64.694 8.24677 65.032C8.24677 65.214 8.27277 65.3873 8.32477 65.552ZM15.6754 65.552C15.7274 65.7167 15.7837 65.8467 15.8444 65.942H17.7944V70.986C17.7944 71.2113 17.8204 71.3933 17.8724 71.532C17.9244 71.6707 18.0024 71.779 18.1064 71.857C18.2104 71.935 18.336 71.987 18.4834 72.013C18.6394 72.0477 18.817 72.065 19.0164 72.065C19.2157 72.065 19.415 72.052 19.6144 72.026C19.8224 72 19.974 71.974 20.0694 71.948V65.942H21.5124C21.755 65.942 21.95 65.8683 22.0974 65.721C22.2534 65.5737 22.3314 65.331 22.3314 64.993C22.3314 64.811 22.3054 64.6377 22.2534 64.473C22.2014 64.3083 22.145 64.1783 22.0844 64.083H16.4164C16.1737 64.083 15.9743 64.1567 15.8184 64.304C15.671 64.4513 15.5974 64.694 15.5974 65.032C15.5974 65.214 15.6234 65.3873 15.6754 65.552ZM23.757 64.447C23.5403 64.6637 23.432 64.9583 23.432 65.331V70.83C23.432 71.2027 23.5403 71.4973 23.757 71.714C23.9737 71.9307 24.2683 72.039 24.641 72.039H28.437C28.671 72.039 28.8573 71.9697 28.996 71.831C29.1433 71.6837 29.217 71.4453 29.217 71.116C29.217 70.9427 29.191 70.778 29.139 70.622C29.0957 70.466 29.0437 70.3403 28.983 70.245H25.642V68.88H28.034C28.268 68.88 28.4543 68.8107 28.593 68.672C28.7317 68.5333 28.801 68.2993 28.801 67.97C28.801 67.7967 28.775 67.6363 28.723 67.489C28.6797 67.333 28.6277 67.2073 28.567 67.112H25.642V65.903H28.385C28.619 65.903 28.8053 65.8337 28.944 65.695C29.0913 65.5563 29.165 65.3223 29.165 64.993C29.165 64.8197 29.139 64.655 29.087 64.499C29.0437 64.343 28.9917 64.2173 28.931 64.122H24.641C24.2683 64.122 23.9737 64.2303 23.757 64.447ZM37.1581 72C37.3921 71.9393 37.5697 71.8483 37.6911 71.727V65.045C37.6911 64.6203 37.5914 64.343 37.3921 64.213C37.1927 64.0743 36.9024 64.005 36.5211 64.005C36.3304 64.005 36.1354 64.018 35.9361 64.044C35.7454 64.07 35.6024 64.096 35.5071 64.122V66.228C35.5071 66.696 35.5114 67.164 35.5201 67.632C35.5287 68.1 35.5504 68.568 35.5851 69.036L35.5201 69.049C35.3987 68.737 35.2861 68.464 35.1821 68.23C35.0781 67.9873 34.9611 67.7317 34.8311 67.463L33.5311 64.837C33.3577 64.4817 33.1237 64.2563 32.8291 64.161C32.5431 64.057 32.2397 64.005 31.9191 64.005C31.6331 64.005 31.3644 64.0483 31.1131 64.135C30.8617 64.2217 30.6754 64.3517 30.5541 64.525V71.025C30.5541 71.2417 30.5801 71.4193 30.6321 71.558C30.6841 71.688 30.7577 71.792 30.8531 71.87C30.9484 71.948 31.0697 72 31.2171 72.026C31.3644 72.052 31.5334 72.065 31.7241 72.065C31.9147 72.065 32.1054 72.052 32.2961 72.026C32.4954 72 32.6427 71.974 32.7381 71.948V69.933C32.7381 69.465 32.7337 68.9883 32.7251 68.503C32.7251 68.0177 32.7077 67.541 32.6731 67.073L32.7511 67.06C32.8724 67.372 32.9851 67.6493 33.0891 67.892C33.1931 68.126 33.3101 68.3773 33.4401 68.646L34.7271 71.272C34.9091 71.636 35.1431 71.8657 35.4291 71.961C35.7151 72.0563 36.0184 72.104 36.3391 72.104C36.6597 72.104 36.9327 72.0693 37.1581 72ZM38.8443 65.552C38.8963 65.7167 38.9526 65.8467 39.0133 65.942H40.9633V70.986C40.9633 71.2113 40.9893 71.3933 41.0413 71.532C41.0933 71.6707 41.1713 71.779 41.2753 71.857C41.3793 71.935 41.505 71.987 41.6523 72.013C41.8083 72.0477 41.986 72.065 42.1853 72.065C42.3846 72.065 42.584 72.052 42.7833 72.026C42.9913 72 43.143 71.974 43.2383 71.948V65.942H44.6813C44.924 65.942 45.119 65.8683 45.2663 65.721C45.4223 65.5737 45.5003 65.331 45.5003 64.993C45.5003 64.811 45.4743 64.6377 45.4223 64.473C45.3703 64.3083 45.314 64.1783 45.2533 64.083H39.5853C39.3426 64.083 39.1433 64.1567 38.9873 64.304C38.84 64.4513 38.7663 64.694 38.7663 65.032C38.7663 65.214 38.7923 65.3873 38.8443 65.552ZM48.4209 72.026C48.6289 72 48.7806 71.974 48.8759 71.948V65.084C48.8759 64.8587 48.8499 64.6767 48.7979 64.538C48.7459 64.3993 48.6679 64.291 48.5639 64.213C48.4599 64.135 48.3299 64.083 48.1739 64.057C48.0266 64.0223 47.8533 64.005 47.6539 64.005C47.4633 64.005 47.2639 64.0223 47.0559 64.057C46.8479 64.083 46.6963 64.1047 46.6009 64.122V70.986C46.6009 71.2113 46.6269 71.3933 46.6789 71.532C46.7309 71.6707 46.8089 71.779 46.9129 71.857C47.0169 71.935 47.1426 71.987 47.2899 72.013C47.4459 72.0477 47.6236 72.065 47.8229 72.065C48.0223 72.065 48.2216 72.052 48.4209 72.026ZM50.4839 66.254C50.2759 66.774 50.1719 67.372 50.1719 68.048C50.1719 68.7153 50.2759 69.309 50.4839 69.829C50.6919 70.349 50.9779 70.7867 51.3419 71.142C51.7059 71.4973 52.1392 71.7703 52.6419 71.961C53.1445 72.143 53.6905 72.234 54.2799 72.234C54.8692 72.234 55.4152 72.143 55.9179 71.961C56.4205 71.779 56.8539 71.5147 57.2179 71.168C57.5905 70.8127 57.8809 70.375 58.0889 69.855C58.2969 69.3263 58.4009 68.724 58.4009 68.048C58.4009 67.372 58.2925 66.774 58.0759 66.254C57.8679 65.734 57.5775 65.3007 57.2049 64.954C56.8322 64.5987 56.3945 64.33 55.8919 64.148C55.3979 63.966 54.8605 63.875 54.2799 63.875C53.6992 63.875 53.1575 63.966 52.6549 64.148C52.1609 64.33 51.7275 64.5987 51.3549 64.954C50.9909 65.3007 50.7005 65.734 50.4839 66.254ZM52.9929 69.816C52.6722 69.426 52.5119 68.8367 52.5119 68.048C52.5119 67.2593 52.6722 66.6743 52.9929 66.293C53.3222 65.903 53.7555 65.708 54.2929 65.708C54.8389 65.708 55.2679 65.903 55.5799 66.293C55.9005 66.683 56.0609 67.268 56.0609 68.048C56.0609 68.8367 55.9005 69.426 55.5799 69.816C55.2592 70.206 54.8259 70.401 54.2799 70.401C53.7425 70.401 53.3135 70.206 52.9929 69.816ZM66.3065 72C66.5405 71.9393 66.7182 71.8483 66.8395 71.727V65.045C66.8395 64.6203 66.7398 64.343 66.5405 64.213C66.3412 64.0743 66.0508 64.005 65.6695 64.005C65.4788 64.005 65.2838 64.018 65.0845 64.044C64.8938 64.07 64.7508 64.096 64.6555 64.122V66.228C64.6555 66.696 64.6598 67.164 64.6685 67.632C64.6772 68.1 64.6988 68.568 64.7335 69.036L64.6685 69.049C64.5472 68.737 64.4345 68.464 64.3305 68.23C64.2265 67.9873 64.1095 67.7317 63.9795 67.463L62.6795 64.837C62.5062 64.4817 62.2722 64.2563 61.9775 64.161C61.6915 64.057 61.3882 64.005 61.0675 64.005C60.7815 64.005 60.5128 64.0483 60.2615 64.135C60.0102 64.2217 59.8238 64.3517 59.7025 64.525V71.025C59.7025 71.2417 59.7285 71.4193 59.7805 71.558C59.8325 71.688 59.9062 71.792 60.0015 71.87C60.0968 71.948 60.2182 72 60.3655 72.026C60.5128 72.052 60.6818 72.065 60.8725 72.065C61.0632 72.065 61.2538 72.052 61.4445 72.026C61.6438 72 61.7912 71.974 61.8865 71.948V69.933C61.8865 69.465 61.8822 68.9883 61.8735 68.503C61.8735 68.0177 61.8562 67.541 61.8215 67.073L61.8995 67.06C62.0208 67.372 62.1335 67.6493 62.2375 67.892C62.3415 68.126 62.4585 68.3773 62.5885 68.646L63.8755 71.272C64.0575 71.636 64.2915 71.8657 64.5775 71.961C64.8635 72.0563 65.1668 72.104 65.4875 72.104C65.8082 72.104 66.0812 72.0693 66.3065 72Z" fill="url(#paint0_linear_24_1025)"/>
<defs>
<linearGradient id="paint0_linear_24_1025" x1="33.3998" y1="1.58005e-09" x2="33.5564" y2="79.3266" gradientUnits="userSpaceOnUse">
<stop stop-color="#489F89"/>
<stop offset="1" stop-color="#4DB3EC"/>
</linearGradient>
</defs>
</svg>
